<svg xmlns="http://www.w3.org/2000/svg" viewBox="0 0 32 32" id="like"><rect width="8" height="18.8" x="1" y="12.2" fill="#ffc661" rx="1" ry="1"></rect><path fill="#ffc661" d="M30.15,13.68a4.19,4.19,0,0,0-3.24-1.48H22.43l.91-6.62a3.83,3.83,0,0,0-.94-3.07A4.49,4.49,0,0,0,19,1a4.42,4.42,0,0,0-4.1,2.61l-3.81,9.21a1,1,0,0,0-.08.38V30a1,1,0,0,0,1,1H24.85a4,4,0,0,0,4-3.16l2.06-11.2A3.59,3.59,0,0,0,30.15,13.68Z"></path><path fill="#e49f4e" d="M9 13.2V30a1 1 0 0 1-1 1H7.69V14.2a1 1 0 0 0-1-1H1a1 1 0 0 1 1-1H8A1 1 0 0 1 9 13.2zM30.94 16.64l-2.06 11.2a3.83 3.83 0 0 1-2.16 2.74 3.61 3.61 0 0 0 .85-1.74l2.06-11.2a3.6 3.6 0 0 0-.8-3 4.18 4.18 0 0 0-3.24-1.48H21.11L22 6.58a3.83 3.83 0 0 0-.94-3.07A4.51 4.51 0 0 0 17.67 2a4.72 4.72 0 0 0-2.08.49A4.6 4.6 0 0 1 19 1 4.51 4.51 0 0 1 22.4 2.51a3.83 3.83 0 0 1 .94 3.07l-.91 6.62h4.48a4.19 4.19 0 0 1 3.24 1.48A3.63 3.63 0 0 1 30.94 16.64z"></path></svg>